<svg id="svg" xmlns="http://www.w3.org/2000/svg" xmlns:xlink="http://www.w3.org/1999/xlink" width="400" height="400" viewBox="0, 0, 400,400"><g id="svgg"><path id="path0" d="M129.167 80.610 L 58.611 125.553 31.528 125.554 L 4.444 125.556 4.444 142.500 L 4.444 159.444 26.944 159.444 L 49.444 159.444 49.444 233.056 L 49.444 306.667 36.528 306.675 C 18.531 306.686,18.333 306.828,18.333 319.689 L 18.333 327.547 15.972 328.181 C 8.820 330.101,6.452 334.686,6.208 347.083 L 6.019 356.667 200.000 356.667 L 393.981 356.667 393.792 347.083 C 393.506 332.513,390.174 328.142,378.760 327.359 L 374.444 327.063 374.444 318.933 C 374.444 306.883,374.191 306.667,360.028 306.667 L 350.556 306.667 350.556 233.056 L 350.556 159.444 373.056 159.444 L 395.556 159.444 395.556 142.500 L 395.556 125.556 368.472 125.555 L 341.389 125.554 270.624 80.555 C 231.703 55.805,199.828 35.581,199.790 35.611 C 199.753 35.642,167.972 55.891,129.167 80.610 M131.667 233.056 L 131.667 306.667 118.056 306.667 L 104.444 306.667 104.444 233.056 L 104.444 159.444 118.056 159.444 L 131.667 159.444 131.667 233.056 M221.944 160.055 C 254.673 164.030,271.569 204.827,252.444 233.700 C 244.342 245.930,231.126 253.410,215.556 254.576 L 213.611 254.722 213.467 280.694 L 213.322 306.667 199.995 306.667 L 186.667 306.667 186.667 233.056 L 186.667 159.444 201.806 159.446 C 210.132 159.447,219.194 159.721,221.944 160.055 M295.556 233.056 L 295.556 306.667 281.944 306.667 L 268.333 306.667 268.333 233.056 L 268.333 159.444 281.944 159.444 L 295.556 159.444 295.556 233.056 M213.704 183.148 C 213.125 183.727,213.261 229.890,213.842 230.249 C 215.944 231.548,225.144 227.562,229.211 223.592 C 242.767 210.357,235.971 187.360,217.334 183.403 C 213.859 182.665,214.165 182.687,213.704 183.148 " stroke="none" fill="#000000" fill-rule="evenodd"></path></g></svg>